<svg width="24" height="25" viewBox="0 0 24 25" fill="none" xmlns="http://www.w3.org/2000/svg">
<path d="M15 11.5V11.51" stroke="#F6BE05" stroke-linecap="round" stroke-linejoin="round"/>
<path d="M5.17283 8.87863C4.73423 8.54153 4.39737 8.08973 4.19949 7.57316C4.00161 7.05658 3.95041 6.49536 4.05154 5.95151C4.15268 5.40765 4.40222 4.90235 4.77258 4.49146C5.14294 4.08056 5.6197 3.78006 6.15016 3.62318C6.68063 3.46629 7.24414 3.45913 7.77842 3.60249C8.3127 3.74584 8.79694 4.03413 9.17762 4.43548C9.5583 4.83684 9.8206 5.33563 9.93552 5.87674C10.0504 6.41785 10.0135 6.98019 9.82883 7.50163" stroke="#F6BE05" stroke-linecap="round" stroke-linejoin="round"/>
<path d="M16 4.5V8.303C17.2376 9.01912 18.1799 10.1524 18.658 11.5H19.999C20.2642 11.5 20.5186 11.6054 20.7061 11.7929C20.8936 11.9804 20.999 12.2348 20.999 12.5V14.5C20.999 14.7652 20.8936 15.0196 20.7061 15.2071C20.5186 15.3946 20.2642 15.5 19.999 15.5H18.657C18.321 16.45 17.75 17.3 16.999 17.973V20C16.999 20.3978 16.841 20.7794 16.5596 21.0607C16.2783 21.342 15.8968 21.5 15.499 21.5C15.1012 21.5 14.7196 21.342 14.4383 21.0607C14.157 20.7794 13.999 20.3978 13.999 20V19.417C13.6685 19.4724 13.334 19.5001 12.999 19.5H8.99899C8.66393 19.5001 8.32944 19.4724 7.99899 19.417V20C7.99899 20.3978 7.84095 20.7794 7.55965 21.0607C7.27835 21.342 6.89682 21.5 6.49899 21.5C6.10117 21.5 5.71964 21.342 5.43833 21.0607C5.15703 20.7794 4.99899 20.3978 4.99899 20V18L4.99999 17.973C4.09402 17.163 3.45536 16.097 3.16853 14.9161C2.88171 13.7352 2.96025 12.495 3.39375 11.3597C3.82726 10.2244 4.59529 9.24747 5.59621 8.55826C6.59712 7.86904 7.78373 7.50001 8.99899 7.5H11.499L15.999 4.5H16Z" stroke="#F6BE05" stroke-linecap="round" stroke-linejoin="round"/>
</svg>
