<svg width="133" height="46" viewBox="0 0 133 46" fill="none" xmlns="http://www.w3.org/2000/svg">
<g clip-path="url(#clip0_526_2860)">
<mask id="mask0_526_2860" style="mask-type:luminance" maskUnits="userSpaceOnUse" x="0" y="0" width="133" height="46">
<path d="M133 0H0V46H133V0Z" fill="white"/>
</mask>
<g mask="url(#mask0_526_2860)">
<path d="M125.766 35.5823C125.766 35.8872 126.004 36.1445 126.331 36.1445C126.555 36.1445 126.719 36.0158 126.861 35.8397L129.366 32.6764L131.884 35.8532C132.026 36.0293 132.19 36.1378 132.428 36.1378C132.748 36.1378 133.007 35.9007 133.007 35.562C133.007 35.3994 132.945 35.2572 132.83 35.1149L130.134 31.823L132.721 28.6732C132.816 28.558 132.884 28.4361 132.884 28.2735C132.884 27.9552 132.646 27.7113 132.326 27.7113C132.101 27.7113 131.938 27.84 131.795 28.0161L129.42 31.0169L127.032 27.9958C126.889 27.8197 126.726 27.7113 126.488 27.7113C126.168 27.7113 125.908 27.9349 125.908 28.2871C125.908 28.4496 125.97 28.5919 126.099 28.7342L128.651 31.85L125.936 35.1759C125.82 35.2843 125.773 35.4129 125.773 35.5755M120.125 35.142C118.375 35.142 117.062 33.706 117.062 31.9313V31.8974C117.062 30.1566 118.301 28.7002 120.097 28.7002C121.894 28.7002 123.18 30.1566 123.18 31.9246V31.9584C123.18 33.6992 121.928 35.1352 120.131 35.1352L120.125 35.142ZM120.091 36.2462C122.594 36.2462 124.439 34.2682 124.439 31.9313V31.8974C124.439 29.5673 122.608 27.6165 120.125 27.6165C117.641 27.6165 115.79 29.5944 115.79 31.9313V31.9651C115.79 34.2953 117.6 36.2462 120.091 36.2462ZM106.174 34.9185V30.9694H109.719C111.68 30.9694 112.707 31.6739 112.707 32.8864V32.9202C112.707 34.1666 111.645 34.9185 109.944 34.9185H106.174ZM106.174 29.8518V26.0044H109.59C111.196 26.0044 112.081 26.7224 112.081 27.8264V27.8604C112.081 29.1677 111.019 29.8585 109.495 29.8585H106.174V29.8518ZM104.922 35.4129C104.922 35.7652 105.208 36.0497 105.548 36.0497H109.91C112.366 36.0497 113.986 34.9185 113.986 33.0015V32.9677C113.986 31.4368 112.911 30.6646 111.577 30.265C112.462 29.8789 113.36 29.1338 113.36 27.6775V27.6435C113.36 26.9255 113.102 26.3363 112.638 25.8553C111.999 25.2321 110.985 24.8664 109.699 24.8664H105.541C105.201 24.8664 104.915 25.1509 104.915 25.5031V35.4062L104.922 35.4129ZM94.4754 36.2462C95.8709 36.2462 96.8169 35.7043 97.6061 34.9185C97.7015 34.8237 97.7698 34.6814 97.7698 34.5324C97.7698 34.2479 97.5106 33.9702 97.2112 33.9702C97.0481 33.9702 96.939 34.0515 96.8578 34.1328C96.2454 34.7085 95.4965 35.142 94.5437 35.142C92.8085 35.142 91.4949 33.7195 91.4949 31.9313V31.8974C91.4949 30.1227 92.7812 28.7002 94.4618 28.7002C95.4556 28.7002 96.1294 29.1473 96.7283 29.6892C96.8238 29.7705 96.9663 29.8315 97.13 29.8315C97.4499 29.8315 97.722 29.574 97.722 29.2421C97.722 29.0525 97.6265 28.8899 97.531 28.8086C96.7896 28.1381 95.8641 27.6097 94.4823 27.6097C92.0596 27.6097 90.229 29.5876 90.229 31.9246V31.9584C90.229 34.275 92.0596 36.2394 94.4823 36.2394L94.4754 36.2462ZM86.6291 35.5146C86.6291 35.8668 86.902 36.1378 87.2553 36.1378C87.6092 36.1378 87.8677 35.8668 87.8677 35.5146V28.3412C87.8677 27.989 87.5956 27.7181 87.2416 27.7181C86.8883 27.7181 86.6291 28.0025 86.6291 28.3412V35.5146ZM86.5139 25.4218C86.5139 25.8079 86.8337 26.0789 87.2348 26.0789C87.6365 26.0789 87.9769 25.8079 87.9769 25.4218V25.2118C87.9769 24.8122 87.657 24.5547 87.2348 24.5547C86.8133 24.5547 86.5139 24.8122 86.5139 25.2118V25.4218ZM79.5181 34.3359C77.98 34.3359 76.6459 33.1844 76.6459 31.5249V31.491C76.6459 29.7976 77.9459 28.7138 79.5181 28.7138C81.0902 28.7138 82.5668 29.8179 82.5668 31.5113V31.5452C82.5668 33.2047 81.0902 34.3427 79.5181 34.3427V34.3359ZM79.5317 38.6508C80.8453 38.6508 81.9544 38.285 82.6957 37.5467C83.3696 36.8761 83.7577 35.9007 83.7577 34.6204V28.3412C83.7577 28.0025 83.4856 27.7181 83.1316 27.7181C82.7776 27.7181 82.5191 28.0025 82.5191 28.3412V29.2828C81.8452 28.3887 80.8317 27.6232 79.28 27.6232C77.3062 27.6232 75.3807 29.1067 75.3807 31.5181V31.552C75.3807 33.9295 77.2925 35.4197 79.28 35.4197C80.8044 35.4197 81.8179 34.634 82.5396 33.6789V34.6543C82.5396 36.5848 81.3555 37.5941 79.5249 37.5941C78.4493 37.5941 77.4562 37.2757 76.5852 36.7C76.5034 36.6525 76.4216 36.6187 76.3131 36.6187C76.0266 36.6187 75.7477 36.8896 75.7477 37.1606C75.7477 37.3841 75.8773 37.5738 76.0676 37.6686C77.1091 38.3053 78.2658 38.644 79.5317 38.644V38.6508ZM69.2764 35.264C68.1534 35.264 67.1871 34.6543 67.1871 33.618V33.5841C67.1871 32.5477 68.0513 31.8771 69.6099 31.8771C70.6234 31.8771 71.4405 32.0532 72.0462 32.2293V33.0286C72.0462 34.3359 70.7939 35.264 69.2696 35.264H69.2764ZM69.0383 36.2394C70.5013 36.2394 71.461 35.5688 72.0394 34.8169V35.5688C72.0394 35.8872 72.2774 36.1445 72.6314 36.1445C72.9854 36.1445 73.2234 35.8872 73.2234 35.5349V31.0169C73.2234 29.9602 72.9376 29.1609 72.3729 28.6054C71.7604 27.9958 70.8622 27.6978 69.6911 27.6978C68.6298 27.6978 67.7995 27.9077 66.9761 28.2599C66.8128 28.3209 66.6359 28.5174 66.6359 28.768C66.6359 29.0525 66.8945 29.2963 67.1803 29.2963C67.2416 29.2963 67.3232 29.2828 67.4048 29.2489C68.0173 28.978 68.7185 28.7883 69.5553 28.7883C71.1138 28.7883 72.0257 29.5537 72.0257 31.0372V31.3217C71.2837 31.1117 70.5354 30.9694 69.4735 30.9694C67.3708 30.9694 65.9281 31.8974 65.9281 33.6382V33.6722C65.9281 35.3656 67.4865 36.2462 69.0247 36.2462L69.0383 36.2394ZM52.8486 35.5214C52.8486 35.8736 53.1208 36.1445 53.461 36.1445C53.8013 36.1445 54.0872 35.8736 54.0872 35.5214V27.183L57.6666 32.419C57.8096 32.629 57.9865 32.7374 58.2111 32.7374C58.4357 32.7374 58.5989 32.629 58.7419 32.419L62.335 27.1627V35.501C62.335 35.8397 62.6208 36.1378 62.9747 36.1378C63.3286 36.1378 63.6008 35.8532 63.6008 35.501V25.4557C63.6008 25.1238 63.3149 24.8325 62.9747 24.8325H62.8317C62.5732 24.8325 62.369 24.9612 62.2397 25.1712L58.2247 31.1794L54.2097 25.1712C54.0803 24.9815 53.8898 24.8325 53.6176 24.8325H53.4747C53.1344 24.8325 52.8486 25.117 52.8486 25.4557V35.5214ZM105.875 17.3747C104.337 17.3747 103.002 16.2232 103.002 14.5636V14.5298C103.002 12.8363 104.302 11.7525 105.875 11.7525C107.447 11.7525 108.923 12.8567 108.923 14.5501V14.5839C108.923 16.2435 107.447 17.3815 105.875 17.3815V17.3747ZM105.888 21.6895C107.201 21.6895 108.311 21.3238 109.052 20.5854C109.726 19.9148 110.114 18.9394 110.114 17.6592V11.38C110.114 11.0413 109.842 10.7568 109.488 10.7568C109.134 10.7568 108.876 11.0413 108.876 11.38V12.3216C108.202 11.4274 107.188 10.662 105.637 10.662C103.663 10.662 101.737 12.1454 101.737 14.5568V14.5907C101.737 16.9682 103.649 18.4584 105.637 18.4584C107.16 18.4584 108.174 17.6727 108.896 16.7177V17.6931C108.896 19.6235 107.712 20.6328 105.881 20.6328C104.806 20.6328 103.813 20.3144 102.941 19.7387C102.86 19.6913 102.778 19.6574 102.669 19.6574C102.383 19.6574 102.104 19.9284 102.104 20.1993C102.104 20.4228 102.234 20.6125 102.424 20.7074C103.466 21.3441 104.622 21.6828 105.888 21.6828V21.6895ZM92.3256 18.5601C92.3256 18.9123 92.5978 19.1833 92.9511 19.1833C93.305 19.1833 93.5635 18.9123 93.5635 18.5601V14.374C93.5635 12.8228 94.6255 11.7864 96.0544 11.7864C97.4833 11.7864 98.3481 12.7415 98.3481 14.2791V18.5601C98.3481 18.9123 98.6203 19.1833 98.9743 19.1833C99.3276 19.1833 99.5867 18.9123 99.5867 18.5601V13.9743C99.5867 12.0099 98.4157 10.6688 96.4084 10.6688C94.9795 10.6688 94.1153 11.3867 93.5704 12.2809V11.3867C93.5704 11.0345 93.2982 10.7636 92.9449 10.7636C92.5909 10.7636 92.3324 11.048 92.3324 11.3867V18.5601H92.3256ZM88.2149 18.5601C88.2149 18.9123 88.487 19.1833 88.841 19.1833C89.195 19.1833 89.4535 18.9123 89.4535 18.5601V11.3867C89.4535 11.0345 89.1814 10.7636 88.8274 10.7636C88.4734 10.7636 88.2149 11.048 88.2149 11.3867V18.5601ZM88.1065 8.46731C88.1065 8.85344 88.4256 9.12436 88.8274 9.12436C89.2291 9.12436 89.5626 8.85344 89.5626 8.46731V8.25736C89.5626 7.85771 89.2427 7.60031 88.8274 7.60031C88.4127 7.60031 88.1065 7.85771 88.1065 8.25736V8.46731ZM78.9942 18.5601C78.9942 18.9123 79.2664 19.1833 79.6204 19.1833C79.9737 19.1833 80.2329 18.9123 80.2329 18.5601V16.9818L81.9475 15.2884L84.819 18.8987C84.9827 19.1088 85.1252 19.1833 85.3503 19.1833C85.6906 19.1833 85.9423 18.9462 85.9423 18.6075C85.9423 18.4449 85.8946 18.3366 85.7786 18.1943L82.8117 14.4688L85.5269 11.8203C85.6906 11.6577 85.765 11.5358 85.765 11.3394C85.765 11.0345 85.5406 10.7636 85.2002 10.7636C85.0099 10.7636 84.8599 10.8449 84.7173 11.0007L80.226 15.5525V7.97957C80.226 7.64769 79.9532 7.35645 79.5999 7.35645C79.2459 7.35645 78.9874 7.64089 78.9874 7.97957V18.5533L78.9942 18.5601ZM72.495 18.5601C72.495 18.9123 72.7671 19.1833 73.1211 19.1833C73.4751 19.1833 73.7336 18.8987 73.7336 18.5601V15.749C73.7336 13.3715 75.0472 12.1725 76.6528 11.9761C76.9727 11.9286 77.1977 11.6916 77.1977 11.3529C77.1977 11.0142 76.959 10.7297 76.5852 10.7297C75.5438 10.7297 74.3393 11.5629 73.7268 12.9312V11.38C73.7268 11.0277 73.4546 10.7568 73.1006 10.7568C72.7467 10.7568 72.4882 11.0413 72.4882 11.38V18.5533L72.495 18.5601ZM65.9145 18.3027C64.7917 18.3027 63.8254 17.6931 63.8254 16.6567V16.6228C63.8254 15.5865 64.6896 14.9158 66.2479 14.9158C67.2619 14.9158 68.0786 15.0919 68.6844 15.2681V16.0674C68.6844 17.3747 67.4321 18.3027 65.9077 18.3027H65.9145ZM65.6763 19.2781C67.1395 19.2781 68.099 18.6075 68.6775 17.8556V18.6075C68.6775 18.9259 68.9156 19.1833 69.2696 19.1833C69.6235 19.1833 69.8616 18.9259 69.8616 18.5736V14.0556C69.8616 12.9989 69.5758 12.1996 69.0111 11.6442C68.3986 11.0345 67.5001 10.7365 66.3297 10.7365C65.268 10.7365 64.4378 10.9465 63.6144 11.2987C63.4511 11.3597 63.2741 11.5561 63.2741 11.8067C63.2741 12.0912 63.5327 12.3351 63.8185 12.3351C63.8798 12.3351 63.9614 12.3216 64.0431 12.2876C64.6556 12.0167 65.3565 11.827 66.1935 11.827C67.7519 11.827 68.6639 12.5925 68.6639 14.0759V14.3604C67.9289 14.1504 67.1735 14.0082 66.1119 14.0082C64.009 14.0082 62.5664 14.9361 62.5664 16.677V16.7109C62.5664 18.4043 64.1248 19.2849 65.6627 19.2849L65.6763 19.2781ZM54.1212 14.0082V9.09051H56.9589C58.7691 9.09051 59.9736 9.92366 59.9736 11.5155V11.5493C59.9736 13.0193 58.7555 14.0082 56.8909 14.0082H54.1144H54.1212ZM52.8554 18.5465C52.8554 18.8987 53.1412 19.1833 53.4815 19.1833C53.8217 19.1833 54.1212 18.8987 54.1212 18.5465V15.1597H56.85C59.2386 15.1597 61.2598 13.9134 61.2598 11.5019V11.468C61.2598 9.26661 59.5926 7.91867 57.0542 7.91867H53.4747C53.1344 7.91867 52.8486 8.20312 52.8486 8.5554V18.5397L52.8554 18.5465Z" fill="white"/>
<path fill-rule="evenodd" clip-rule="evenodd" d="M20.6259 0C20.136 0.020321 19.6256 0.149021 19.2173 0.379326L2.02066 9.88959C1.70082 10.0657 1.46944 10.2892 1.33334 10.5263C1.24487 10.6821 1.19724 10.8514 1.19043 11.0208C1.19043 11.1969 1.22446 11.3662 1.31293 11.5288C1.42181 11.7185 1.59193 11.8878 1.82331 12.0165L19.3942 21.7367C19.7685 21.9399 20.2653 22.0348 20.7689 22.0076C21.2588 21.9873 21.7693 21.8586 22.1775 21.6351L39.3742 12.1248C39.694 11.9487 39.9254 11.7252 40.0615 11.4881C40.1499 11.3323 40.1976 11.163 40.2044 10.9937C40.2044 10.8176 40.1704 10.6482 40.0819 10.4857C39.973 10.296 39.8029 10.1267 39.5716 9.99793L22.0006 0.277721C21.6263 0.0745104 21.1296 -0.0135473 20.6259 0.00677367M19.8774 20.89L2.30648 11.1698C2.02066 11.014 2.26565 10.865 2.49702 10.7363L19.6936 1.22604C19.9727 1.07024 20.3265 0.988959 20.6736 0.968636C21.0071 0.95509 21.3201 1.0025 21.531 1.11766L39.1088 10.8379C39.3946 10.9937 39.1496 11.1427 38.9182 11.2714L21.7216 20.7816C21.2521 21.0458 20.3742 21.1542 19.8842 20.8832L19.8774 20.89Z" fill="#F6D600"/>
<path fill-rule="evenodd" clip-rule="evenodd" d="M0.973137 14.3735C0.973137 14.1297 0.973137 13.8655 1.22493 14.0145L17.9792 24.0125C18.1766 24.1276 18.3671 24.3647 18.5168 24.6492C18.6733 24.9472 18.7754 25.2859 18.7754 25.5907L19.0884 44.6179C19.0884 44.8483 19.1021 45.1327 18.8367 44.9769L2.08238 34.979C1.88503 34.8571 1.69448 34.6268 1.54477 34.3423C1.38825 34.0443 1.28617 33.7056 1.28617 33.4075L0.973137 14.3803V14.3735ZM18.4828 23.1861L1.7217 13.1881C1.49714 13.0527 1.27256 12.9917 1.0548 12.9917C0.877868 12.9917 0.707737 13.0459 0.558023 13.134C0.415115 13.222 0.299427 13.3439 0.204155 13.493C0.0680516 13.7232 0 14.0281 0 14.3871L0.313037 33.4143C0.319842 33.8681 0.462751 34.3626 0.680516 34.7826C0.905089 35.2161 1.22493 35.5954 1.5856 35.8054L18.3399 45.8034C18.5645 45.9388 18.7958 45.9998 19.0068 45.993C19.1905 45.993 19.3539 45.9388 19.5036 45.8507C19.6465 45.7627 19.7622 45.6408 19.8574 45.4917C19.9936 45.2615 20.0684 44.9566 20.0684 44.5976L19.7553 25.5704C19.7486 25.1165 19.6056 24.6221 19.3879 24.2021C19.1633 23.7686 18.8435 23.3893 18.4828 23.1793V23.1861Z" fill="#F6D600"/>
<path fill-rule="evenodd" clip-rule="evenodd" d="M23.7162 23.9786L40.4092 14.0213C40.661 13.8723 40.661 14.1432 40.661 14.3736L40.348 33.3263C40.348 33.6243 40.2459 33.963 40.0894 34.261C39.9397 34.5456 39.7491 34.7759 39.5518 34.8978L22.8588 44.8618C22.6069 45.0109 22.6069 44.7399 22.6069 44.5096L22.92 25.5569C22.92 25.2588 23.0221 24.9202 23.1786 24.6221C23.3283 24.3376 23.5188 24.1073 23.7162 23.9854M39.9057 13.195L23.2126 23.1522C22.8588 23.3622 22.5389 23.7415 22.3143 24.1751C22.0966 24.5951 21.9537 25.0827 21.9469 25.5366L21.6338 44.4893C21.6338 44.8483 21.7087 45.1532 21.8447 45.3766C21.94 45.5325 22.0557 45.6543 22.1987 45.7356C22.3484 45.8237 22.5117 45.8712 22.6954 45.8779C22.9064 45.8779 23.1378 45.8169 23.3623 45.6815L40.0554 35.7242C40.4092 35.5142 40.7291 35.1348 40.9536 34.7013C41.1714 34.2814 41.3076 33.7937 41.3211 33.3399L41.6342 14.3871C41.6342 14.0281 41.5661 13.7233 41.4232 13.4997C41.328 13.3439 41.2123 13.222 41.0693 13.1407C40.9196 13.0527 40.7563 13.0053 40.5726 12.9985C40.3616 12.9985 40.137 13.0595 39.9057 13.195Z" fill="#F6D600"/>
</g>
</g>
<defs>
<clipPath id="clip0_526_2860">
<rect width="133" height="46" fill="white"/>
</clipPath>
</defs>
</svg>
