<svg width="49" height="48" viewBox="0 0 49 48" fill="none" xmlns="http://www.w3.org/2000/svg">
<path d="M24.6671 28C29.0791 28 32.6671 24.412 32.6671 20C32.6671 15.588 29.0791 12 24.6671 12C20.2551 12 16.6671 15.588 16.6671 20C16.6671 24.412 20.2551 28 24.6671 28ZM24.6671 16C26.8731 16 28.6671 17.794 28.6671 20C28.6671 22.206 26.8731 24 24.6671 24C22.4611 24 20.6671 22.206 20.6671 20C20.6671 17.794 22.4611 16 24.6671 16ZM23.5072 43.628C23.8457 43.8697 24.2512 43.9997 24.6672 43.9997C25.0831 43.9997 25.4887 43.8697 25.8272 43.628C26.4352 43.198 40.7252 32.88 40.6672 20C40.6672 11.178 33.4892 4 24.6672 4C15.8452 4 8.66717 11.178 8.66717 19.99C8.60917 32.88 22.8992 43.198 23.5072 43.628ZM24.6672 8C31.2852 8 36.6672 13.382 36.6672 20.01C36.7092 28.886 27.8912 36.856 24.6672 39.47C21.4452 36.854 12.6252 28.882 12.6672 20C12.6672 13.382 18.0492 8 24.6672 8Z" fill="#F6BE05"/>
<path d="M24.6671 28C29.0791 28 32.6671 24.412 32.6671 20C32.6671 15.588 29.0791 12 24.6671 12C20.2551 12 16.6671 15.588 16.6671 20C16.6671 24.412 20.2551 28 24.6671 28ZM24.6671 16C26.8731 16 28.6671 17.794 28.6671 20C28.6671 22.206 26.8731 24 24.6671 24C22.4611 24 20.6671 22.206 20.6671 20C20.6671 17.794 22.4611 16 24.6671 16ZM23.5072 43.628C23.8457 43.8697 24.2512 43.9997 24.6672 43.9997C25.0831 43.9997 25.4887 43.8697 25.8272 43.628C26.4352 43.198 40.7252 32.88 40.6672 20C40.6672 11.178 33.4892 4 24.6672 4C15.8452 4 8.66717 11.178 8.66717 19.99C8.60917 32.88 22.8992 43.198 23.5072 43.628ZM24.6672 8C31.2852 8 36.6672 13.382 36.6672 20.01C36.7092 28.886 27.8912 36.856 24.6672 39.47C21.4452 36.854 12.6252 28.882 12.6672 20C12.6672 13.382 18.0492 8 24.6672 8Z" fill="#F6BE05"/>
</svg>
