<svg width="39" height="39" viewBox="0 0 39 39" fill="none" xmlns="http://www.w3.org/2000/svg">
<path d="M29.7467 20.5864C29.5611 20.4005 29.3407 20.253 29.0981 20.1524C28.8555 20.0518 28.5954 20 28.3327 20C28.07 20 27.8099 20.0518 27.5673 20.1524C27.3247 20.253 27.1043 20.4005 26.9187 20.5864L23.7307 23.7744C22.2527 23.3344 19.4947 22.3344 17.7467 20.5864C15.9987 18.8384 14.9987 16.0804 14.5587 14.6024L17.7467 11.4144C17.9326 11.2288 18.0801 11.0084 18.1807 10.7658C18.2813 10.5232 18.3331 10.2631 18.3331 10.0004C18.3331 9.73774 18.2813 9.47765 18.1807 9.23502C18.0801 8.99239 17.9326 8.77198 17.7467 8.5864L9.7467 0.586402C9.56112 0.400511 9.34072 0.253035 9.09809 0.152414C8.85546 0.0517922 8.59537 0 8.3327 0C8.07003 0 7.80994 0.0517922 7.56731 0.152414C7.32468 0.253035 7.10427 0.400511 6.9187 0.586402L1.4947 6.0104C0.734699 6.7704 0.306699 7.8144 0.322699 8.8804C0.368699 11.7284 1.1227 21.6204 8.9187 29.4164C16.7147 37.2124 26.6067 37.9644 29.4567 38.0124H29.5127C30.5687 38.0124 31.5667 37.5964 32.3227 36.8404L37.7467 31.4164C37.9326 31.2308 38.0801 31.0104 38.1807 30.7678C38.2813 30.5252 38.3331 30.2651 38.3331 30.0024C38.3331 29.7397 38.2813 29.4796 38.1807 29.237C38.0801 28.9944 37.9326 28.774 37.7467 28.5884L29.7467 20.5864ZM29.4927 34.0104C26.9967 33.9684 18.4567 33.2984 11.7467 26.5864C5.0147 19.8544 4.3627 11.2844 4.3227 8.8384L8.3327 4.8284L13.5047 10.0004L10.9187 12.5864C10.6836 12.8213 10.5108 13.1111 10.4158 13.4295C10.3208 13.748 10.3067 14.0851 10.3747 14.4104C10.4227 14.6404 11.5967 20.0944 14.9167 23.4144C18.2367 26.7344 23.6907 27.9084 23.9207 27.9564C24.2458 28.0263 24.5832 28.0133 24.902 27.9186C25.2207 27.8239 25.5105 27.6505 25.7447 27.4144L28.3327 24.8284L33.5047 30.0004L29.4927 34.0104Z" fill="#F6BE05"/>
</svg>
